<svg width="260" height="46" viewBox="0 0 260 46" fill="none" xmlns="http://www.w3.org/2000/svg">
<g clip-path="url(#clip0_61_608)">
<path fill-rule="evenodd" clip-rule="evenodd" d="M259.204 22.7759V44.603H225.605V31.159H237.5V34.573H247.607V29.665L225.605 22.684V0.67395H259.204V14.118H247.275V10.704H237.202V15.703L259.204 22.7759ZM213.011 44.603H201.446V10.704H191.108V5.45995L186.8 0.70495H191.108H202.937L220.764 0.67395L220.665 0.70495H223.349V10.704H213.011V44.603ZM172.947 5.45995L168.639 0.70495H172.947H175.565L183.219 0.67395L183.186 0.70495H184.545V44.603H172.947V5.45995ZM130.332 44.603V5.45995L126.025 0.70495H130.332H132.784L140.24 0.67395L140.207 0.70495H161.811L166.384 4.57595V6.70995V40.6699L161.811 44.603H130.332ZM154.786 10.887H141.93V34.421H154.786V10.887ZM90.203 5.45995L85.895 0.70495H90.203H102.032L119.859 0.67395L119.759 0.70495H123.702V10.887H101.767V17.5319H123.702V27.44H101.767V34.573H123.769V44.603H90.203V5.45995ZM72.075 44.603L65.315 28.964H56.799V44.603H45.202V5.49095L40.861 0.70495H45.202H47.786L55.441 0.67395L55.408 0.70495H76.316L81.253 5.18595V28.964H76.913L83.639 44.603H72.075ZM69.656 10.887H56.799V19.0569H69.656V10.887ZM26.677 10.734H16.603V34.573H26.677V30.6709H38.539V44.603H10.241L5.00604 39.8779V5.49095L0.665039 0.70495L34.629 0.67395L34.397 0.70495H38.605V14.179H26.677V10.734Z" fill="#00778C"/>
</g>
<defs>
<clipPath id="clip0_61_608">
<rect width="260" height="45" fill="white" transform="translate(0 0.5)"/>
</clipPath>
</defs>
</svg>
