<svg width="340" height="38" viewBox="0 0 340 38" fill="none" xmlns="http://www.w3.org/2000/svg">
<path fill-rule="evenodd" clip-rule="evenodd" d="M339.892 18.8108V37.2425H312.165V25.8898H322.008V28.7727H330.322V24.6282L312.165 18.7331V4.13692L308.637 0.146915L336.665 0.121582L336.474 0.146915H339.892V11.4996H330.075V8.61669H321.762V12.8381L339.892 18.8108ZM279.048 25.8898H288.892V28.7727H297.205V24.6282L279.048 18.7331V4.13692L275.52 0.146915L303.548 0.121582L303.357 0.146915H306.775V11.4996H296.959V8.61669H288.645V12.8381L306.775 18.8108V37.2425H279.048V25.8898ZM244.017 33.3809V4.18843L240.462 0.173093H244.017H253.779L268.49 0.146915L268.409 0.173093H269.885L273.659 4.03474V37.2425H247.79L244.017 33.3809ZM253.587 28.6444H264.088V8.77123H253.587V28.6444ZM230.069 37.2425H220.526V8.61669H211.993V4.18843L208.439 0.173093H211.993H221.756L236.468 0.146915L236.385 0.173093H238.6V8.61669H230.069V37.2425ZM186.394 37.2425H176.851V8.61669H168.32V4.18843L164.765 0.173093H168.32H178.082L192.793 0.146915L192.712 0.173093H194.926V8.61669H186.394V37.2425ZM153.36 37.2425L147.781 24.0363H140.754V37.2425H131.183V4.2146L127.601 0.173093H131.183H133.316L139.633 0.146915L139.606 0.173093H156.86L160.935 3.95705V24.0363H157.352L162.903 37.2425H153.36ZM151.364 8.77123H140.754V15.6703H151.364V8.77123ZM116.169 4.18843L112.613 0.173093H116.169H118.329L124.646 0.146915L124.618 0.173093H125.74V37.2425H116.169V4.18843ZM101.181 25.2463H90.5721V37.2425H81.0009V4.18843L77.4466 0.173093H81.0009H83.1614L89.4778 0.146915L89.4506 0.173093H90.5721V16.6482H101.181V0.173093H110.753V37.2425H101.181V25.2463ZM47.8567 25.8898H57.701V28.7727H66.0137V24.6282L47.8567 18.7331V4.13692L44.3296 0.146915L72.3581 0.121582L72.1667 0.146915H75.5848V11.4996H65.7677V8.61669H57.4551V12.8381L75.5848 18.8108V37.2425H47.8567V25.8898ZM22.2849 37.2425H12.7418V8.61669H4.21042V4.18843L0.655273 0.173093H4.21042H13.9722L28.6838 0.146915L28.6021 0.173093H30.8171V8.61669H22.2849V37.2425Z" fill="#00778C"/>
</svg>
