<svg width="624" height="39" viewBox="0 0 624 39" fill="none" xmlns="http://www.w3.org/2000/svg">
<path fill-rule="evenodd" clip-rule="evenodd" d="M623.662 38.2226H613.639L607.781 24.6688H600.4V38.2226H590.349V4.32549L586.587 0.177623H590.349H592.589L599.223 0.150756L599.194 0.177623H617.315L621.594 4.06116V24.6688H617.832L623.662 38.2226ZM611.542 9.00202H600.4V16.0827H611.542V9.00202ZM555.542 4.29862L551.808 0.177623H555.542H565.794L581.244 0.150756L581.157 0.177623H584.574V9.00202H565.564V14.761H584.574V23.348H565.564V29.5299H584.632V38.2226H555.542V4.29862ZM540.893 38.2226H530.871V8.84342H521.911V4.29862L518.178 0.177623H521.911H532.163L547.613 0.150756L547.527 0.177623H549.853V8.84342H540.893V38.2226ZM485.093 34.2593V4.29862L481.359 0.177623H485.093H495.345L510.795 0.150756L510.709 0.177623H512.26L516.223 4.14089V38.2226H489.056L485.093 34.2593ZM495.144 29.3982H506.171V9.00202H495.144V29.3982ZM448.275 34.2593V4.29862L444.542 0.177623H448.275H458.527L473.977 0.150756L473.891 0.177623H475.442L479.404 4.14089V38.2226H452.238L448.275 34.2593ZM458.326 29.3982H469.354V9.00202H458.326V29.3982ZM432.536 25.9107H421.393V38.2226H411.342V4.29862L407.609 0.177623H411.342H413.61L420.245 0.150756L420.216 0.177623H421.393V17.0863H432.536V0.177623H442.586V38.2226H432.536V25.9107ZM376.534 26.5711H386.873V29.5299H395.603V25.2763L376.534 19.2261V4.24576L372.829 0.150756L402.265 0.124756L402.064 0.150756H405.654V11.8022H395.344V8.84342H386.614V13.1759L405.654 19.3058V38.2226H376.534V26.5711ZM334.66 38.2226H334.631L329.577 23.1096L324.063 38.2226H312.978L312.95 38.09L300.888 2.21169L298.447 0.177623H300.228H301.175L304.19 0.150756L304.162 0.177623H309.992L318.606 25.7252L324.81 8.97515L322.541 2.21169L320.158 0.177623H321.852H323.116L326.36 0.150756L326.332 0.177623H331.616L340.259 25.6464L348.789 0.177623H358.639L345.831 38.2226H334.66ZM265.363 34.2593V0.177623H292.529L296.492 4.14089V38.2226H269.325L265.363 34.2593ZM275.413 29.3982H286.441V9.00202H275.413V29.3982ZM253.384 38.2226L247.527 24.6688H240.146V38.2226H230.095V4.32549L226.333 0.177623H230.095H232.335L238.968 0.150756L238.94 0.177623H257.061L261.34 4.06116V24.6688H257.577L263.408 38.2226H253.384ZM251.289 9.00202H240.146V16.0827H251.289V9.00202ZM214.326 25.9107H203.185V38.2226H193.134V4.29862L189.4 0.177623H193.134H195.402L202.036 0.150756L202.007 0.177623H203.185V17.0863H214.326V0.177623H224.378V38.2226H214.326V25.9107ZM178.485 38.2226H168.462V8.84342H159.503V4.29862L155.77 0.177623H159.503H169.755L185.205 0.150756L185.119 0.177623H187.445V8.84342H178.485V38.2226ZM112.488 4.29862L108.755 0.177623H112.488H122.741L138.19 0.150756L138.104 0.177623H141.521V9.00202H122.51V14.761H141.521V23.348H122.51V29.5299H141.578V38.2226H112.488V4.29862ZM77.7086 4.29862L73.9758 0.177623H77.7086H87.9612L103.411 0.150756L103.325 0.177623H106.742V9.00202H87.7316V14.761H106.742V23.348H87.7316V29.5299H106.8V38.2226H77.7086V4.29862ZM61.9985 38.2226L56.1398 24.6688H48.7593V38.2226H38.7086V4.32549L34.9464 0.177623H38.7086H40.948L47.5824 0.150756L47.5538 0.177623H65.674L69.9528 4.06116V24.6688H66.1906L72.0206 38.2226H61.9985ZM59.902 9.00202H48.7593V16.0827H59.902V9.00202ZM13.9808 38.2226H3.95783V4.29862L0.225098 0.177623H3.95783H14.2105L29.6606 0.150756L29.5739 0.177623H32.9912V9.00202H13.9808V14.761H32.9912V23.348H13.9808V38.2226Z" fill="#00778C"/>
</svg>
