<svg width="419" height="40" viewBox="0 0 419 40" fill="none" xmlns="http://www.w3.org/2000/svg">
<path fill-rule="evenodd" clip-rule="evenodd" d="M418.472 39.9442H408.293L402.343 26.0428H394.847V39.9442H384.638V5.17795L380.817 0.923729H384.638H386.914L393.651 0.896174L393.622 0.923729H412.026L416.373 4.90684V26.0428H412.552L418.472 39.9442ZM406.164 9.9744H394.847V17.2366H406.164V9.9744ZM349.285 5.1504L345.493 0.923729H349.285H359.698L375.39 0.896174L375.302 0.923729H378.773V9.9744H359.465V15.8811H378.773V24.6882H359.465V31.0286H378.832V39.9442H349.285V5.1504ZM333.298 39.9166L326.094 24.2544H318.423V39.9442H308.215V5.17795L304.393 0.923729H308.215H310.49L317.228 0.896174L317.198 0.923729H318.423V15.4482H326.619L333.298 0.923729H343.507L334.057 20.434L343.507 39.9166H333.298ZM291.908 9.8384H283.04V31.0286H291.908V27.5602H302.35V39.9442H277.44L272.832 35.7442V5.17795L269.011 0.923729L298.908 0.896174L298.703 0.923729H302.408V12.9006H291.908V9.8384ZM256.817 27.3166H245.499V39.9442H235.291V5.12373L231.528 0.923729H235.291H237.625L244.362 0.896174L244.333 0.923729H263L267.025 4.98862V39.9442H256.817V27.3166ZM256.817 9.9744H245.499V18.266H256.817V9.9744ZM219.363 39.9442L213.413 26.0428H205.917V39.9442H195.708V5.17795L191.888 0.923729H195.708H197.983L204.721 0.896174L204.692 0.923729H223.097L227.443 4.90684V26.0428H223.621L229.543 39.9442H219.363ZM217.234 9.9744H205.917V17.2366H217.234V9.9744ZM180.802 39.9442H170.622V9.81173H161.521V5.1504L157.729 0.923729H161.521H171.934L187.626 0.896174L187.539 0.923729H189.902V9.81173H180.802V39.9442ZM134.216 39.9442H124.037V9.81173H114.936V5.1504L111.145 0.923729H114.936H125.349L141.042 0.896174L140.954 0.923729H143.316V9.81173H134.216V39.9442ZM77.541 35.8793V5.1504L73.7489 0.923729H77.541H87.9535L103.646 0.896174L103.559 0.923729H105.133L109.159 4.98862V39.9442H81.5664L77.541 35.8793ZM87.7493 30.8935H98.9505V9.9744H87.7493V30.8935ZM61.5548 27.3166H50.2383V39.9442H40.0291V5.1504L36.2378 0.923729H40.0291H42.3336L49.071 0.896174L49.042 0.923729H50.2383V18.266H61.5548V0.923729H71.7639V39.9442H61.5548V27.3166ZM4.67553 27.994H15.1761V31.0286H24.0428V26.666L4.67553 20.4606V5.09617L0.91333 0.896174L30.8102 0.869507L30.606 0.896174H34.252V12.8464H23.7805V9.81173H14.9137V14.2553L34.252 20.5424V39.9442H4.67553V27.994Z" fill="#00778C"/>
</svg>
